<mxfile host="app.diagrams.net" agent="Mozilla/5.0 (Windows NT 10.0; Win64; x64) AppleWebKit/537.36 (KHTML, like Gecko) Chrome/135.0.0.0 Safari/537.36" version="26.2.13">
  <diagram name="Page-1" id="39tHWlZvdAbYfuZcHo1p">
    <mxGraphModel dx="2627" dy="1657" grid="1" gridSize="10" guides="1" tooltips="1" connect="1" arrows="1" fold="1" page="1" pageScale="1" pageWidth="850" pageHeight="1100" math="0" shadow="0">
      <root>
        <mxCell id="0" />
        <mxCell id="1" parent="0" />
        <mxCell id="urHR6lXya4nr1xwzOtR6-88" style="edgeStyle=orthogonalEdgeStyle;rounded=0;orthogonalLoop=1;jettySize=auto;html=1;entryX=0.5;entryY=0;entryDx=0;entryDy=0;" edge="1" parent="1" source="urHR6lXya4nr1xwzOtR6-45" target="urHR6lXya4nr1xwzOtR6-75">
          <mxGeometry relative="1" as="geometry">
            <mxPoint x="320" y="560" as="targetPoint" />
            <Array as="points">
              <mxPoint x="1385" y="490" />
              <mxPoint x="220" y="490" />
            </Array>
          </mxGeometry>
        </mxCell>
        <mxCell id="urHR6lXya4nr1xwzOtR6-45" value="" style="rounded=0;whiteSpace=wrap;html=1;fillColor=none;" vertex="1" parent="1">
          <mxGeometry x="1325" y="240" width="120" height="140" as="geometry" />
        </mxCell>
        <mxCell id="urHR6lXya4nr1xwzOtR6-22" value="" style="rounded=0;whiteSpace=wrap;html=1;fillColor=none;dashed=1;dashPattern=8 8;" vertex="1" parent="1">
          <mxGeometry x="360" y="208" width="830" height="202" as="geometry" />
        </mxCell>
        <mxCell id="urHR6lXya4nr1xwzOtR6-3" value="&lt;font style=&quot;font-size: 16px;&quot;&gt;&amp;nbsp; &amp;nbsp;Pre-Process&lt;/font&gt;&lt;div&gt;&lt;font style=&quot;font-size: 16px;&quot;&gt;Data&lt;/font&gt;&lt;/div&gt;" style="html=1;shadow=0;dashed=0;align=center;verticalAlign=middle;shape=mxgraph.arrows2.arrow;dy=0;dx=30;notch=30;" vertex="1" parent="1">
          <mxGeometry x="370" y="220" width="132" height="60" as="geometry" />
        </mxCell>
        <mxCell id="urHR6lXya4nr1xwzOtR6-4" value="&lt;font style=&quot;font-size: 16px;&quot;&gt;Train&lt;/font&gt;&lt;div&gt;&lt;font style=&quot;font-size: 16px;&quot;&gt;Model&lt;/font&gt;&lt;/div&gt;" style="html=1;shadow=0;dashed=0;align=center;verticalAlign=middle;shape=mxgraph.arrows2.arrow;dy=0;dx=30;notch=30;" vertex="1" parent="1">
          <mxGeometry x="500" y="220" width="110" height="60" as="geometry" />
        </mxCell>
        <mxCell id="urHR6lXya4nr1xwzOtR6-5" value="&lt;font style=&quot;font-size: 16px;&quot;&gt;&amp;nbsp; Baseline&lt;/font&gt;&lt;div&gt;&lt;font style=&quot;font-size: 16px;&quot;&gt;Data&lt;/font&gt;&lt;/div&gt;" style="html=1;shadow=0;dashed=0;align=center;verticalAlign=middle;shape=mxgraph.arrows2.arrow;dy=0;dx=30;notch=30;" vertex="1" parent="1">
          <mxGeometry x="853" y="220" width="110" height="60" as="geometry" />
        </mxCell>
        <mxCell id="urHR6lXya4nr1xwzOtR6-6" value="&lt;font style=&quot;font-size: 16px;&quot;&gt;&amp;nbsp; Evaluate&lt;/font&gt;&lt;div&gt;&lt;font style=&quot;font-size: 16px;&quot;&gt;&amp;nbsp; Model&lt;/font&gt;&lt;/div&gt;" style="html=1;shadow=0;dashed=0;align=center;verticalAlign=middle;shape=mxgraph.arrows2.arrow;dy=0;dx=30;notch=30;" vertex="1" parent="1">
          <mxGeometry x="607" y="220" width="110" height="60" as="geometry" />
        </mxCell>
        <mxCell id="urHR6lXya4nr1xwzOtR6-7" value="&lt;font style=&quot;font-size: 16px;&quot;&gt;Model&lt;/font&gt;&lt;div&gt;&lt;font style=&quot;font-size: 16px;&quot;&gt;Evaluation&lt;/font&gt;&lt;/div&gt;" style="rhombus;whiteSpace=wrap;html=1;" vertex="1" parent="1">
          <mxGeometry x="720" y="220" width="160" height="60" as="geometry" />
        </mxCell>
        <mxCell id="urHR6lXya4nr1xwzOtR6-8" value="&lt;font style=&quot;font-size: 16px;&quot;&gt;Package&lt;/font&gt;&lt;div&gt;&lt;font style=&quot;font-size: 16px;&quot;&gt;Model&lt;/font&gt;&lt;/div&gt;" style="html=1;shadow=0;dashed=0;align=center;verticalAlign=middle;shape=mxgraph.arrows2.arrow;dy=0;dx=30;notch=30;" vertex="1" parent="1">
          <mxGeometry x="963" y="220" width="110" height="60" as="geometry" />
        </mxCell>
        <mxCell id="urHR6lXya4nr1xwzOtR6-9" value="&lt;font style=&quot;font-size: 16px;&quot;&gt;&amp;nbsp;Register&lt;/font&gt;&lt;div&gt;&lt;font style=&quot;font-size: 16px;&quot;&gt;Model&lt;/font&gt;&lt;/div&gt;" style="html=1;shadow=0;dashed=0;align=center;verticalAlign=middle;shape=mxgraph.arrows2.arrow;dy=0;dx=30;notch=30;" vertex="1" parent="1">
          <mxGeometry x="1070" y="220" width="110" height="60" as="geometry" />
        </mxCell>
        <mxCell id="urHR6lXya4nr1xwzOtR6-10" value="" style="sketch=0;points=[[0,0,0],[0.25,0,0],[0.5,0,0],[0.75,0,0],[1,0,0],[0,1,0],[0.25,1,0],[0.5,1,0],[0.75,1,0],[1,1,0],[0,0.25,0],[0,0.5,0],[0,0.75,0],[1,0.25,0],[1,0.5,0],[1,0.75,0]];outlineConnect=0;fontColor=#232F3E;fillColor=#01A88D;strokeColor=#ffffff;dashed=0;verticalLabelPosition=bottom;verticalAlign=top;align=center;html=1;fontSize=12;fontStyle=0;aspect=fixed;shape=mxgraph.aws4.resourceIcon;resIcon=mxgraph.aws4.sagemaker;" vertex="1" parent="1">
          <mxGeometry x="392" y="290" width="78" height="78" as="geometry" />
        </mxCell>
        <mxCell id="urHR6lXya4nr1xwzOtR6-11" value="" style="sketch=0;points=[[0,0,0],[0.25,0,0],[0.5,0,0],[0.75,0,0],[1,0,0],[0,1,0],[0.25,1,0],[0.5,1,0],[0.75,1,0],[1,1,0],[0,0.25,0],[0,0.5,0],[0,0.75,0],[1,0.25,0],[1,0.5,0],[1,0.75,0]];outlineConnect=0;fontColor=#232F3E;fillColor=#01A88D;strokeColor=#ffffff;dashed=0;verticalLabelPosition=bottom;verticalAlign=top;align=center;html=1;fontSize=12;fontStyle=0;aspect=fixed;shape=mxgraph.aws4.resourceIcon;resIcon=mxgraph.aws4.sagemaker;" vertex="1" parent="1">
          <mxGeometry x="500" y="290" width="78" height="78" as="geometry" />
        </mxCell>
        <mxCell id="urHR6lXya4nr1xwzOtR6-12" value="" style="sketch=0;points=[[0,0,0],[0.25,0,0],[0.5,0,0],[0.75,0,0],[1,0,0],[0,1,0],[0.25,1,0],[0.5,1,0],[0.75,1,0],[1,1,0],[0,0.25,0],[0,0.5,0],[0,0.75,0],[1,0.25,0],[1,0.5,0],[1,0.75,0]];outlineConnect=0;fontColor=#232F3E;fillColor=#01A88D;strokeColor=#ffffff;dashed=0;verticalLabelPosition=bottom;verticalAlign=top;align=center;html=1;fontSize=12;fontStyle=0;aspect=fixed;shape=mxgraph.aws4.resourceIcon;resIcon=mxgraph.aws4.sagemaker;" vertex="1" parent="1">
          <mxGeometry x="853" y="290" width="78" height="78" as="geometry" />
        </mxCell>
        <mxCell id="urHR6lXya4nr1xwzOtR6-13" value="" style="sketch=0;points=[[0,0,0],[0.25,0,0],[0.5,0,0],[0.75,0,0],[1,0,0],[0,1,0],[0.25,1,0],[0.5,1,0],[0.75,1,0],[1,1,0],[0,0.25,0],[0,0.5,0],[0,0.75,0],[1,0.25,0],[1,0.5,0],[1,0.75,0]];outlineConnect=0;fontColor=#232F3E;fillColor=#01A88D;strokeColor=#ffffff;dashed=0;verticalLabelPosition=bottom;verticalAlign=top;align=center;html=1;fontSize=12;fontStyle=0;aspect=fixed;shape=mxgraph.aws4.resourceIcon;resIcon=mxgraph.aws4.sagemaker;" vertex="1" parent="1">
          <mxGeometry x="961" y="290" width="78" height="78" as="geometry" />
        </mxCell>
        <mxCell id="urHR6lXya4nr1xwzOtR6-14" value="" style="sketch=0;points=[[0,0,0],[0.25,0,0],[0.5,0,0],[0.75,0,0],[1,0,0],[0,1,0],[0.25,1,0],[0.5,1,0],[0.75,1,0],[1,1,0],[0,0.25,0],[0,0.5,0],[0,0.75,0],[1,0.25,0],[1,0.5,0],[1,0.75,0]];outlineConnect=0;fontColor=#232F3E;fillColor=#01A88D;strokeColor=#ffffff;dashed=0;verticalLabelPosition=bottom;verticalAlign=top;align=center;html=1;fontSize=12;fontStyle=0;aspect=fixed;shape=mxgraph.aws4.resourceIcon;resIcon=mxgraph.aws4.sagemaker;" vertex="1" parent="1">
          <mxGeometry x="607" y="290" width="78" height="78" as="geometry" />
        </mxCell>
        <mxCell id="urHR6lXya4nr1xwzOtR6-15" value="" style="sketch=0;points=[[0,0,0],[0.25,0,0],[0.5,0,0],[0.75,0,0],[1,0,0],[0,1,0],[0.25,1,0],[0.5,1,0],[0.75,1,0],[1,1,0],[0,0.25,0],[0,0.5,0],[0,0.75,0],[1,0.25,0],[1,0.5,0],[1,0.75,0]];outlineConnect=0;fontColor=#232F3E;fillColor=#01A88D;strokeColor=#ffffff;dashed=0;verticalLabelPosition=bottom;verticalAlign=top;align=center;html=1;fontSize=12;fontStyle=0;aspect=fixed;shape=mxgraph.aws4.resourceIcon;resIcon=mxgraph.aws4.sagemaker;" vertex="1" parent="1">
          <mxGeometry x="1070" y="290" width="78" height="78" as="geometry" />
        </mxCell>
        <mxCell id="urHR6lXya4nr1xwzOtR6-16" value="&lt;font style=&quot;font-size: 16px;&quot;&gt;Processing&lt;/font&gt;&lt;div&gt;&lt;font style=&quot;font-size: 16px;&quot;&gt;Job&lt;/font&gt;&lt;/div&gt;" style="text;html=1;align=center;verticalAlign=middle;whiteSpace=wrap;rounded=0;" vertex="1" parent="1">
          <mxGeometry x="400" y="373" width="60" height="30" as="geometry" />
        </mxCell>
        <mxCell id="urHR6lXya4nr1xwzOtR6-17" value="&lt;font style=&quot;font-size: 16px;&quot;&gt;Training&lt;/font&gt;&lt;div&gt;&lt;font style=&quot;font-size: 16px;&quot;&gt;Job&lt;/font&gt;&lt;/div&gt;" style="text;html=1;align=center;verticalAlign=middle;whiteSpace=wrap;rounded=0;" vertex="1" parent="1">
          <mxGeometry x="509" y="372" width="60" height="30" as="geometry" />
        </mxCell>
        <mxCell id="urHR6lXya4nr1xwzOtR6-18" value="&lt;font style=&quot;font-size: 16px;&quot;&gt;Processing&lt;/font&gt;&lt;div&gt;&lt;font style=&quot;font-size: 16px;&quot;&gt;Job&lt;/font&gt;&lt;/div&gt;" style="text;html=1;align=center;verticalAlign=middle;whiteSpace=wrap;rounded=0;" vertex="1" parent="1">
          <mxGeometry x="616" y="375" width="60" height="30" as="geometry" />
        </mxCell>
        <mxCell id="urHR6lXya4nr1xwzOtR6-19" value="&lt;font style=&quot;font-size: 16px;&quot;&gt;Processing&lt;/font&gt;&lt;div&gt;&lt;font style=&quot;font-size: 16px;&quot;&gt;Job&lt;/font&gt;&lt;/div&gt;" style="text;html=1;align=center;verticalAlign=middle;whiteSpace=wrap;rounded=0;" vertex="1" parent="1">
          <mxGeometry x="862" y="372" width="60" height="30" as="geometry" />
        </mxCell>
        <mxCell id="urHR6lXya4nr1xwzOtR6-20" value="&lt;font style=&quot;font-size: 16px;&quot;&gt;Processing&lt;/font&gt;&lt;div&gt;&lt;font style=&quot;font-size: 16px;&quot;&gt;Job&lt;/font&gt;&lt;/div&gt;" style="text;html=1;align=center;verticalAlign=middle;whiteSpace=wrap;rounded=0;" vertex="1" parent="1">
          <mxGeometry x="970" y="373" width="60" height="30" as="geometry" />
        </mxCell>
        <mxCell id="urHR6lXya4nr1xwzOtR6-21" value="&lt;font style=&quot;font-size: 16px;&quot;&gt;Processing&lt;/font&gt;&lt;div&gt;&lt;font style=&quot;font-size: 16px;&quot;&gt;Job&lt;/font&gt;&lt;/div&gt;" style="text;html=1;align=center;verticalAlign=middle;whiteSpace=wrap;rounded=0;" vertex="1" parent="1">
          <mxGeometry x="1079" y="373" width="60" height="30" as="geometry" />
        </mxCell>
        <mxCell id="urHR6lXya4nr1xwzOtR6-23" value="&lt;font style=&quot;font-size: 16px;&quot;&gt;Data Pre-Processing &amp;amp; Model Training PIpeline&lt;/font&gt;" style="text;html=1;align=center;verticalAlign=middle;whiteSpace=wrap;rounded=0;" vertex="1" parent="1">
          <mxGeometry x="625" y="180" width="375" height="30" as="geometry" />
        </mxCell>
        <mxCell id="urHR6lXya4nr1xwzOtR6-29" value="" style="group" vertex="1" connectable="0" parent="1">
          <mxGeometry x="128" y="250" width="100" height="120" as="geometry" />
        </mxCell>
        <mxCell id="urHR6lXya4nr1xwzOtR6-2" value="" style="shape=image;html=1;verticalAlign=top;verticalLabelPosition=bottom;labelBackgroundColor=#ffffff;imageAspect=0;aspect=fixed;image=https://cdn4.iconfinder.com/data/icons/ionicons/512/icon-social-github-128.png" vertex="1" parent="urHR6lXya4nr1xwzOtR6-29">
          <mxGeometry x="11" y="30" width="78" height="78" as="geometry" />
        </mxCell>
        <mxCell id="urHR6lXya4nr1xwzOtR6-31" style="edgeStyle=orthogonalEdgeStyle;rounded=0;orthogonalLoop=1;jettySize=auto;html=1;" edge="1" parent="urHR6lXya4nr1xwzOtR6-29" source="urHR6lXya4nr1xwzOtR6-24">
          <mxGeometry relative="1" as="geometry">
            <mxPoint x="230" y="60" as="targetPoint" />
          </mxGeometry>
        </mxCell>
        <mxCell id="urHR6lXya4nr1xwzOtR6-24" value="" style="rounded=0;whiteSpace=wrap;html=1;fillColor=none;" vertex="1" parent="urHR6lXya4nr1xwzOtR6-29">
          <mxGeometry width="100" height="120" as="geometry" />
        </mxCell>
        <mxCell id="urHR6lXya4nr1xwzOtR6-25" value="&lt;font style=&quot;font-size: 16px;&quot;&gt;Github&lt;/font&gt;" style="text;html=1;align=center;verticalAlign=middle;whiteSpace=wrap;rounded=0;" vertex="1" parent="urHR6lXya4nr1xwzOtR6-29">
          <mxGeometry x="20" y="5" width="60" height="30" as="geometry" />
        </mxCell>
        <mxCell id="urHR6lXya4nr1xwzOtR6-32" value="&lt;font style=&quot;font-size: 16px;&quot;&gt;Github Actions&lt;/font&gt;&lt;div&gt;&lt;font style=&quot;font-size: 16px;&quot;&gt;Workflow&lt;/font&gt;&lt;/div&gt;" style="text;html=1;align=center;verticalAlign=middle;whiteSpace=wrap;rounded=0;" vertex="1" parent="1">
          <mxGeometry x="236" y="286" width="90" height="30" as="geometry" />
        </mxCell>
        <mxCell id="urHR6lXya4nr1xwzOtR6-46" value="&lt;font style=&quot;font-size: 16px;&quot;&gt;Model&lt;/font&gt;&lt;div&gt;&lt;font style=&quot;font-size: 16px;&quot;&gt;Registry&lt;/font&gt;&lt;/div&gt;" style="text;html=1;align=center;verticalAlign=middle;whiteSpace=wrap;rounded=0;" vertex="1" parent="1">
          <mxGeometry x="1353" y="250" width="60" height="25" as="geometry" />
        </mxCell>
        <mxCell id="urHR6lXya4nr1xwzOtR6-56" value="" style="sketch=0;points=[[0,0,0],[0.25,0,0],[0.5,0,0],[0.75,0,0],[1,0,0],[0,1,0],[0.25,1,0],[0.5,1,0],[0.75,1,0],[1,1,0],[0,0.25,0],[0,0.5,0],[0,0.75,0],[1,0.25,0],[1,0.5,0],[1,0.75,0]];outlineConnect=0;fontColor=#232F3E;fillColor=#01A88D;strokeColor=#ffffff;dashed=0;verticalLabelPosition=bottom;verticalAlign=top;align=center;html=1;fontSize=12;fontStyle=0;aspect=fixed;shape=mxgraph.aws4.resourceIcon;resIcon=mxgraph.aws4.sagemaker;" vertex="1" parent="1">
          <mxGeometry x="1344" y="287" width="78" height="78" as="geometry" />
        </mxCell>
        <mxCell id="urHR6lXya4nr1xwzOtR6-60" value="" style="rounded=0;whiteSpace=wrap;html=1;fillColor=none;" vertex="1" parent="1">
          <mxGeometry x="1338" y="570" width="120" height="140" as="geometry" />
        </mxCell>
        <mxCell id="urHR6lXya4nr1xwzOtR6-61" value="&lt;font style=&quot;font-size: 16px;&quot;&gt;Inference&lt;/font&gt;&lt;div&gt;&lt;font style=&quot;font-size: 16px;&quot;&gt;Bucket&lt;/font&gt;&lt;/div&gt;" style="text;html=1;align=center;verticalAlign=middle;whiteSpace=wrap;rounded=0;" vertex="1" parent="1">
          <mxGeometry x="1366" y="580" width="60" height="25" as="geometry" />
        </mxCell>
        <mxCell id="urHR6lXya4nr1xwzOtR6-78" style="edgeStyle=orthogonalEdgeStyle;rounded=0;orthogonalLoop=1;jettySize=auto;html=1;" edge="1" parent="1">
          <mxGeometry relative="1" as="geometry">
            <mxPoint x="1323" y="310" as="targetPoint" />
            <mxPoint x="1193" y="310" as="sourcePoint" />
          </mxGeometry>
        </mxCell>
        <mxCell id="urHR6lXya4nr1xwzOtR6-79" value="&lt;font style=&quot;font-size: 16px;&quot;&gt;Latest Model&lt;/font&gt;&lt;div&gt;&lt;font style=&quot;font-size: 16px;&quot;&gt;Version&lt;/font&gt;&lt;/div&gt;" style="text;html=1;align=center;verticalAlign=middle;whiteSpace=wrap;rounded=0;" vertex="1" parent="1">
          <mxGeometry x="1201" y="286" width="90" height="30" as="geometry" />
        </mxCell>
        <mxCell id="urHR6lXya4nr1xwzOtR6-87" value="" style="group" vertex="1" connectable="0" parent="1">
          <mxGeometry x="160" y="565" width="120" height="140" as="geometry" />
        </mxCell>
        <mxCell id="urHR6lXya4nr1xwzOtR6-90" style="edgeStyle=orthogonalEdgeStyle;rounded=0;orthogonalLoop=1;jettySize=auto;html=1;" edge="1" parent="urHR6lXya4nr1xwzOtR6-87">
          <mxGeometry relative="1" as="geometry">
            <mxPoint x="60" y="339" as="targetPoint" />
            <mxPoint x="59.85714285714312" y="144" as="sourcePoint" />
          </mxGeometry>
        </mxCell>
        <mxCell id="urHR6lXya4nr1xwzOtR6-97" style="edgeStyle=orthogonalEdgeStyle;rounded=0;orthogonalLoop=1;jettySize=auto;html=1;" edge="1" parent="urHR6lXya4nr1xwzOtR6-87">
          <mxGeometry relative="1" as="geometry">
            <mxPoint x="231" y="70" as="targetPoint" />
            <mxPoint x="125" y="70" as="sourcePoint" />
          </mxGeometry>
        </mxCell>
        <mxCell id="urHR6lXya4nr1xwzOtR6-75" value="" style="rounded=0;whiteSpace=wrap;html=1;fillColor=none;" vertex="1" parent="urHR6lXya4nr1xwzOtR6-87">
          <mxGeometry width="120" height="140" as="geometry" />
        </mxCell>
        <mxCell id="urHR6lXya4nr1xwzOtR6-76" value="&lt;font style=&quot;font-size: 16px;&quot;&gt;Pre-Prod&lt;/font&gt;" style="text;html=1;align=center;verticalAlign=middle;whiteSpace=wrap;rounded=0;" vertex="1" parent="urHR6lXya4nr1xwzOtR6-87">
          <mxGeometry x="22" y="10" width="78" height="25" as="geometry" />
        </mxCell>
        <mxCell id="urHR6lXya4nr1xwzOtR6-83" value="" style="sketch=0;outlineConnect=0;fontColor=#232F3E;gradientColor=none;fillColor=#ED7100;strokeColor=none;dashed=0;verticalLabelPosition=bottom;verticalAlign=top;align=center;html=1;fontSize=12;fontStyle=0;aspect=fixed;pointerEvents=1;shape=mxgraph.aws4.deployment;" vertex="1" parent="urHR6lXya4nr1xwzOtR6-87">
          <mxGeometry x="11.610000000000014" y="47" width="81.39" height="78" as="geometry" />
        </mxCell>
        <mxCell id="urHR6lXya4nr1xwzOtR6-89" value="" style="group" vertex="1" connectable="0" parent="1">
          <mxGeometry x="161" y="910" width="120" height="140" as="geometry" />
        </mxCell>
        <mxCell id="urHR6lXya4nr1xwzOtR6-98" style="edgeStyle=orthogonalEdgeStyle;rounded=0;orthogonalLoop=1;jettySize=auto;html=1;" edge="1" parent="urHR6lXya4nr1xwzOtR6-89">
          <mxGeometry relative="1" as="geometry">
            <mxPoint x="230" y="70" as="targetPoint" />
            <mxPoint x="124" y="70" as="sourcePoint" />
          </mxGeometry>
        </mxCell>
        <mxCell id="urHR6lXya4nr1xwzOtR6-84" value="" style="rounded=0;whiteSpace=wrap;html=1;fillColor=none;" vertex="1" parent="urHR6lXya4nr1xwzOtR6-89">
          <mxGeometry width="120" height="140" as="geometry" />
        </mxCell>
        <mxCell id="urHR6lXya4nr1xwzOtR6-85" value="&lt;font style=&quot;font-size: 16px;&quot;&gt;Prod&lt;/font&gt;" style="text;html=1;align=center;verticalAlign=middle;whiteSpace=wrap;rounded=0;" vertex="1" parent="urHR6lXya4nr1xwzOtR6-89">
          <mxGeometry x="28" y="10" width="60" height="25" as="geometry" />
        </mxCell>
        <mxCell id="urHR6lXya4nr1xwzOtR6-86" value="" style="sketch=0;outlineConnect=0;fontColor=#232F3E;gradientColor=none;fillColor=#ED7100;strokeColor=none;dashed=0;verticalLabelPosition=bottom;verticalAlign=top;align=center;html=1;fontSize=12;fontStyle=0;aspect=fixed;pointerEvents=1;shape=mxgraph.aws4.deployment;" vertex="1" parent="urHR6lXya4nr1xwzOtR6-89">
          <mxGeometry x="11.610000000000127" y="47" width="81.39" height="78" as="geometry" />
        </mxCell>
        <mxCell id="urHR6lXya4nr1xwzOtR6-99" value="" style="sketch=0;points=[[0,0,0],[0.25,0,0],[0.5,0,0],[0.75,0,0],[1,0,0],[0,1,0],[0.25,1,0],[0.5,1,0],[0.75,1,0],[1,1,0],[0,0.25,0],[0,0.5,0],[0,0.75,0],[1,0.25,0],[1,0.5,0],[1,0.75,0]];outlineConnect=0;fontColor=#232F3E;fillColor=#ED7100;strokeColor=#ffffff;dashed=0;verticalLabelPosition=bottom;verticalAlign=top;align=center;html=1;fontSize=12;fontStyle=0;aspect=fixed;shape=mxgraph.aws4.resourceIcon;resIcon=mxgraph.aws4.lambda;" vertex="1" parent="1">
          <mxGeometry x="815" y="456" width="78" height="78" as="geometry" />
        </mxCell>
        <mxCell id="urHR6lXya4nr1xwzOtR6-105" value="" style="group" vertex="1" connectable="0" parent="1">
          <mxGeometry x="690" y="568" width="120" height="140" as="geometry" />
        </mxCell>
        <mxCell id="urHR6lXya4nr1xwzOtR6-102" value="" style="rounded=0;whiteSpace=wrap;html=1;fillColor=none;" vertex="1" parent="urHR6lXya4nr1xwzOtR6-105">
          <mxGeometry width="120" height="140" as="geometry" />
        </mxCell>
        <mxCell id="urHR6lXya4nr1xwzOtR6-103" value="&lt;font style=&quot;font-size: 16px;&quot;&gt;Endpoint&lt;/font&gt;&lt;div&gt;&lt;font style=&quot;font-size: 16px;&quot;&gt;Lambda&lt;/font&gt;&lt;/div&gt;" style="text;html=1;align=center;verticalAlign=middle;whiteSpace=wrap;rounded=0;" vertex="1" parent="urHR6lXya4nr1xwzOtR6-105">
          <mxGeometry x="28" y="10" width="60" height="25" as="geometry" />
        </mxCell>
        <mxCell id="urHR6lXya4nr1xwzOtR6-104" value="" style="sketch=0;points=[[0,0,0],[0.25,0,0],[0.5,0,0],[0.75,0,0],[1,0,0],[0,1,0],[0.25,1,0],[0.5,1,0],[0.75,1,0],[1,1,0],[0,0.25,0],[0,0.5,0],[0,0.75,0],[1,0.25,0],[1,0.5,0],[1,0.75,0]];outlineConnect=0;fontColor=#232F3E;fillColor=#ED7100;strokeColor=#ffffff;dashed=0;verticalLabelPosition=bottom;verticalAlign=top;align=center;html=1;fontSize=12;fontStyle=0;aspect=fixed;shape=mxgraph.aws4.resourceIcon;resIcon=mxgraph.aws4.lambda;" vertex="1" parent="urHR6lXya4nr1xwzOtR6-105">
          <mxGeometry x="18" y="46" width="78" height="78" as="geometry" />
        </mxCell>
        <mxCell id="urHR6lXya4nr1xwzOtR6-106" value="" style="group" vertex="1" connectable="0" parent="1">
          <mxGeometry x="689" y="910" width="120" height="140" as="geometry" />
        </mxCell>
        <mxCell id="urHR6lXya4nr1xwzOtR6-69" value="" style="rounded=0;whiteSpace=wrap;html=1;fillColor=none;" vertex="1" parent="urHR6lXya4nr1xwzOtR6-106">
          <mxGeometry width="120" height="140" as="geometry" />
        </mxCell>
        <mxCell id="urHR6lXya4nr1xwzOtR6-70" value="&lt;font style=&quot;font-size: 16px;&quot;&gt;Endpoint&lt;/font&gt;&lt;div&gt;&lt;font style=&quot;font-size: 16px;&quot;&gt;Lambda&lt;/font&gt;&lt;/div&gt;" style="text;html=1;align=center;verticalAlign=middle;whiteSpace=wrap;rounded=0;" vertex="1" parent="urHR6lXya4nr1xwzOtR6-106">
          <mxGeometry x="28" y="10" width="60" height="25" as="geometry" />
        </mxCell>
        <mxCell id="urHR6lXya4nr1xwzOtR6-101" value="" style="sketch=0;points=[[0,0,0],[0.25,0,0],[0.5,0,0],[0.75,0,0],[1,0,0],[0,1,0],[0.25,1,0],[0.5,1,0],[0.75,1,0],[1,1,0],[0,0.25,0],[0,0.5,0],[0,0.75,0],[1,0.25,0],[1,0.5,0],[1,0.75,0]];outlineConnect=0;fontColor=#232F3E;fillColor=#ED7100;strokeColor=#ffffff;dashed=0;verticalLabelPosition=bottom;verticalAlign=top;align=center;html=1;fontSize=12;fontStyle=0;aspect=fixed;shape=mxgraph.aws4.resourceIcon;resIcon=mxgraph.aws4.lambda;" vertex="1" parent="urHR6lXya4nr1xwzOtR6-106">
          <mxGeometry x="18" y="46" width="78" height="78" as="geometry" />
        </mxCell>
        <mxCell id="urHR6lXya4nr1xwzOtR6-112" value="" style="group" vertex="1" connectable="0" parent="1">
          <mxGeometry x="879" y="910" width="120" height="140" as="geometry" />
        </mxCell>
        <mxCell id="urHR6lXya4nr1xwzOtR6-109" value="" style="rounded=0;whiteSpace=wrap;html=1;fillColor=none;" vertex="1" parent="urHR6lXya4nr1xwzOtR6-112">
          <mxGeometry width="120" height="140" as="geometry" />
        </mxCell>
        <mxCell id="urHR6lXya4nr1xwzOtR6-110" value="&lt;font style=&quot;font-size: 16px;&quot;&gt;Model&lt;/font&gt;&lt;div&gt;&lt;font style=&quot;font-size: 16px;&quot;&gt;Registry&lt;/font&gt;&lt;/div&gt;" style="text;html=1;align=center;verticalAlign=middle;whiteSpace=wrap;rounded=0;" vertex="1" parent="urHR6lXya4nr1xwzOtR6-112">
          <mxGeometry x="28" y="10" width="60" height="25" as="geometry" />
        </mxCell>
        <mxCell id="urHR6lXya4nr1xwzOtR6-111" value="" style="sketch=0;points=[[0,0,0],[0.25,0,0],[0.5,0,0],[0.75,0,0],[1,0,0],[0,1,0],[0.25,1,0],[0.5,1,0],[0.75,1,0],[1,1,0],[0,0.25,0],[0,0.5,0],[0,0.75,0],[1,0.25,0],[1,0.5,0],[1,0.75,0]];outlineConnect=0;fontColor=#232F3E;fillColor=#E7157B;strokeColor=#ffffff;dashed=0;verticalLabelPosition=bottom;verticalAlign=top;align=center;html=1;fontSize=12;fontStyle=0;aspect=fixed;shape=mxgraph.aws4.resourceIcon;resIcon=mxgraph.aws4.api_gateway;" vertex="1" parent="urHR6lXya4nr1xwzOtR6-112">
          <mxGeometry x="21" y="47" width="78" height="78" as="geometry" />
        </mxCell>
        <mxCell id="urHR6lXya4nr1xwzOtR6-113" value="" style="group" vertex="1" connectable="0" parent="1">
          <mxGeometry x="879" y="570" width="120" height="140" as="geometry" />
        </mxCell>
        <mxCell id="urHR6lXya4nr1xwzOtR6-66" value="" style="rounded=0;whiteSpace=wrap;html=1;fillColor=none;" vertex="1" parent="urHR6lXya4nr1xwzOtR6-113">
          <mxGeometry width="120" height="140" as="geometry" />
        </mxCell>
        <mxCell id="urHR6lXya4nr1xwzOtR6-67" value="&lt;font style=&quot;font-size: 16px;&quot;&gt;Model&lt;/font&gt;&lt;div&gt;&lt;font style=&quot;font-size: 16px;&quot;&gt;Registry&lt;/font&gt;&lt;/div&gt;" style="text;html=1;align=center;verticalAlign=middle;whiteSpace=wrap;rounded=0;" vertex="1" parent="urHR6lXya4nr1xwzOtR6-113">
          <mxGeometry x="28" y="10" width="60" height="25" as="geometry" />
        </mxCell>
        <mxCell id="urHR6lXya4nr1xwzOtR6-107" value="" style="sketch=0;points=[[0,0,0],[0.25,0,0],[0.5,0,0],[0.75,0,0],[1,0,0],[0,1,0],[0.25,1,0],[0.5,1,0],[0.75,1,0],[1,1,0],[0,0.25,0],[0,0.5,0],[0,0.75,0],[1,0.25,0],[1,0.5,0],[1,0.75,0]];outlineConnect=0;fontColor=#232F3E;fillColor=#E7157B;strokeColor=#ffffff;dashed=0;verticalLabelPosition=bottom;verticalAlign=top;align=center;html=1;fontSize=12;fontStyle=0;aspect=fixed;shape=mxgraph.aws4.resourceIcon;resIcon=mxgraph.aws4.api_gateway;" vertex="1" parent="urHR6lXya4nr1xwzOtR6-113">
          <mxGeometry x="21" y="47" width="78" height="78" as="geometry" />
        </mxCell>
        <mxCell id="urHR6lXya4nr1xwzOtR6-119" value="" style="group" vertex="1" connectable="0" parent="1">
          <mxGeometry x="1060" y="910" width="120" height="140" as="geometry" />
        </mxCell>
        <mxCell id="urHR6lXya4nr1xwzOtR6-135" style="edgeStyle=orthogonalEdgeStyle;rounded=0;orthogonalLoop=1;jettySize=auto;html=1;" edge="1" parent="urHR6lXya4nr1xwzOtR6-119">
          <mxGeometry relative="1" as="geometry">
            <mxPoint x="210" y="-31" as="targetPoint" />
            <mxPoint x="120" y="58.99999999999977" as="sourcePoint" />
          </mxGeometry>
        </mxCell>
        <mxCell id="urHR6lXya4nr1xwzOtR6-136" style="edgeStyle=orthogonalEdgeStyle;rounded=0;orthogonalLoop=1;jettySize=auto;html=1;" edge="1" parent="urHR6lXya4nr1xwzOtR6-119">
          <mxGeometry relative="1" as="geometry">
            <mxPoint x="263" y="79" as="targetPoint" />
            <mxPoint x="123" y="78.99999999999977" as="sourcePoint" />
          </mxGeometry>
        </mxCell>
        <mxCell id="urHR6lXya4nr1xwzOtR6-63" value="" style="rounded=0;whiteSpace=wrap;html=1;fillColor=none;" vertex="1" parent="urHR6lXya4nr1xwzOtR6-119">
          <mxGeometry width="120" height="140" as="geometry" />
        </mxCell>
        <mxCell id="urHR6lXya4nr1xwzOtR6-64" value="&lt;font style=&quot;font-size: 16px;&quot;&gt;API&lt;/font&gt;&lt;div&gt;&lt;font style=&quot;font-size: 16px;&quot;&gt;Authentication&lt;/font&gt;&lt;/div&gt;" style="text;html=1;align=center;verticalAlign=middle;whiteSpace=wrap;rounded=0;" vertex="1" parent="urHR6lXya4nr1xwzOtR6-119">
          <mxGeometry x="28" y="10" width="60" height="25" as="geometry" />
        </mxCell>
        <mxCell id="urHR6lXya4nr1xwzOtR6-114" value="" style="sketch=0;points=[[0,0,0],[0.25,0,0],[0.5,0,0],[0.75,0,0],[1,0,0],[0,1,0],[0.25,1,0],[0.5,1,0],[0.75,1,0],[1,1,0],[0,0.25,0],[0,0.5,0],[0,0.75,0],[1,0.25,0],[1,0.5,0],[1,0.75,0]];outlineConnect=0;fontColor=#232F3E;fillColor=#DD344C;strokeColor=#ffffff;dashed=0;verticalLabelPosition=bottom;verticalAlign=top;align=center;html=1;fontSize=12;fontStyle=0;aspect=fixed;shape=mxgraph.aws4.resourceIcon;resIcon=mxgraph.aws4.cognito;" vertex="1" parent="urHR6lXya4nr1xwzOtR6-119">
          <mxGeometry x="19" y="47" width="78" height="78" as="geometry" />
        </mxCell>
        <mxCell id="urHR6lXya4nr1xwzOtR6-120" value="" style="group" vertex="1" connectable="0" parent="1">
          <mxGeometry x="1060" y="570" width="120" height="140" as="geometry" />
        </mxCell>
        <mxCell id="urHR6lXya4nr1xwzOtR6-133" style="edgeStyle=orthogonalEdgeStyle;rounded=0;orthogonalLoop=1;jettySize=auto;html=1;" edge="1" parent="urHR6lXya4nr1xwzOtR6-120">
          <mxGeometry relative="1" as="geometry">
            <mxPoint x="272" y="57.000000000000114" as="targetPoint" />
            <mxPoint x="122" y="56.999999999999886" as="sourcePoint" />
          </mxGeometry>
        </mxCell>
        <mxCell id="urHR6lXya4nr1xwzOtR6-134" style="edgeStyle=orthogonalEdgeStyle;rounded=0;orthogonalLoop=1;jettySize=auto;html=1;" edge="1" parent="urHR6lXya4nr1xwzOtR6-120">
          <mxGeometry relative="1" as="geometry">
            <mxPoint x="212" y="198" as="targetPoint" />
            <mxPoint x="122" y="77.99999999999989" as="sourcePoint" />
          </mxGeometry>
        </mxCell>
        <mxCell id="urHR6lXya4nr1xwzOtR6-115" value="" style="rounded=0;whiteSpace=wrap;html=1;fillColor=none;container=0;" vertex="1" parent="urHR6lXya4nr1xwzOtR6-120">
          <mxGeometry width="120" height="140" as="geometry" />
        </mxCell>
        <mxCell id="urHR6lXya4nr1xwzOtR6-116" value="&lt;font style=&quot;font-size: 16px;&quot;&gt;API&lt;/font&gt;&lt;div&gt;&lt;font style=&quot;font-size: 16px;&quot;&gt;Authentication&lt;/font&gt;&lt;/div&gt;" style="text;html=1;align=center;verticalAlign=middle;whiteSpace=wrap;rounded=0;container=0;" vertex="1" parent="urHR6lXya4nr1xwzOtR6-120">
          <mxGeometry x="28" y="10" width="60" height="25" as="geometry" />
        </mxCell>
        <mxCell id="urHR6lXya4nr1xwzOtR6-117" value="" style="sketch=0;points=[[0,0,0],[0.25,0,0],[0.5,0,0],[0.75,0,0],[1,0,0],[0,1,0],[0.25,1,0],[0.5,1,0],[0.75,1,0],[1,1,0],[0,0.25,0],[0,0.5,0],[0,0.75,0],[1,0.25,0],[1,0.5,0],[1,0.75,0]];outlineConnect=0;fontColor=#232F3E;fillColor=#DD344C;strokeColor=#ffffff;dashed=0;verticalLabelPosition=bottom;verticalAlign=top;align=center;html=1;fontSize=12;fontStyle=0;aspect=fixed;shape=mxgraph.aws4.resourceIcon;resIcon=mxgraph.aws4.cognito;container=0;" vertex="1" parent="urHR6lXya4nr1xwzOtR6-120">
          <mxGeometry x="19" y="47" width="78" height="78" as="geometry" />
        </mxCell>
        <mxCell id="urHR6lXya4nr1xwzOtR6-121" value="" style="sketch=0;points=[[0,0,0],[0.25,0,0],[0.5,0,0],[0.75,0,0],[1,0,0],[0,1,0],[0.25,1,0],[0.5,1,0],[0.75,1,0],[1,1,0],[0,0.25,0],[0,0.5,0],[0,0.75,0],[1,0.25,0],[1,0.5,0],[1,0.75,0]];outlineConnect=0;fontColor=#232F3E;fillColor=#7AA116;strokeColor=#ffffff;dashed=0;verticalLabelPosition=bottom;verticalAlign=top;align=center;html=1;fontSize=12;fontStyle=0;aspect=fixed;shape=mxgraph.aws4.resourceIcon;resIcon=mxgraph.aws4.s3;" vertex="1" parent="1">
          <mxGeometry x="1357" y="617" width="78" height="78" as="geometry" />
        </mxCell>
        <mxCell id="urHR6lXya4nr1xwzOtR6-125" value="" style="group" vertex="1" connectable="0" parent="1">
          <mxGeometry x="1330" y="909" width="120" height="140" as="geometry" />
        </mxCell>
        <mxCell id="urHR6lXya4nr1xwzOtR6-122" value="" style="rounded=0;whiteSpace=wrap;html=1;fillColor=none;" vertex="1" parent="urHR6lXya4nr1xwzOtR6-125">
          <mxGeometry width="120" height="140" as="geometry" />
        </mxCell>
        <mxCell id="urHR6lXya4nr1xwzOtR6-123" value="Inference&lt;div&gt;Bucket&lt;/div&gt;" style="text;html=1;align=center;verticalAlign=middle;whiteSpace=wrap;rounded=0;" vertex="1" parent="urHR6lXya4nr1xwzOtR6-125">
          <mxGeometry x="28" y="10" width="60" height="25" as="geometry" />
        </mxCell>
        <mxCell id="urHR6lXya4nr1xwzOtR6-124" value="" style="sketch=0;points=[[0,0,0],[0.25,0,0],[0.5,0,0],[0.75,0,0],[1,0,0],[0,1,0],[0.25,1,0],[0.5,1,0],[0.75,1,0],[1,1,0],[0,0.25,0],[0,0.5,0],[0,0.75,0],[1,0.25,0],[1,0.5,0],[1,0.75,0]];outlineConnect=0;fontColor=#232F3E;fillColor=#7AA116;strokeColor=#ffffff;dashed=0;verticalLabelPosition=bottom;verticalAlign=top;align=center;html=1;fontSize=12;fontStyle=0;aspect=fixed;shape=mxgraph.aws4.resourceIcon;resIcon=mxgraph.aws4.s3;" vertex="1" parent="urHR6lXya4nr1xwzOtR6-125">
          <mxGeometry x="19" y="47" width="78" height="78" as="geometry" />
        </mxCell>
        <mxCell id="urHR6lXya4nr1xwzOtR6-130" value="" style="group" vertex="1" connectable="0" parent="1">
          <mxGeometry x="1230" y="770" width="78" height="106" as="geometry" />
        </mxCell>
        <mxCell id="urHR6lXya4nr1xwzOtR6-131" style="edgeStyle=orthogonalEdgeStyle;rounded=0;orthogonalLoop=1;jettySize=auto;html=1;" edge="1" parent="urHR6lXya4nr1xwzOtR6-130">
          <mxGeometry relative="1" as="geometry">
            <mxPoint x="-113" y="130" as="targetPoint" />
            <mxPoint x="-3" y="46" as="sourcePoint" />
          </mxGeometry>
        </mxCell>
        <mxCell id="urHR6lXya4nr1xwzOtR6-132" style="edgeStyle=orthogonalEdgeStyle;rounded=0;orthogonalLoop=1;jettySize=auto;html=1;" edge="1" parent="urHR6lXya4nr1xwzOtR6-130">
          <mxGeometry relative="1" as="geometry">
            <mxPoint x="-111" y="-52" as="targetPoint" />
            <mxPoint x="-1" y="27" as="sourcePoint" />
          </mxGeometry>
        </mxCell>
        <mxCell id="urHR6lXya4nr1xwzOtR6-128" value="" style="shadow=0;dashed=0;html=1;strokeColor=none;fillColor=light-dark(#e7157b, #3d83b7);labelPosition=center;verticalLabelPosition=bottom;verticalAlign=top;align=center;outlineConnect=0;shape=mxgraph.veeam.2d.web_ui;" vertex="1" parent="urHR6lXya4nr1xwzOtR6-130">
          <mxGeometry width="78" height="78" as="geometry" />
        </mxCell>
        <mxCell id="urHR6lXya4nr1xwzOtR6-129" value="&lt;font style=&quot;font-size: 16px;&quot;&gt;Inference&lt;/font&gt;&lt;div&gt;&lt;font style=&quot;font-size: 16px;&quot;&gt;Request&lt;/font&gt;&lt;/div&gt;" style="text;html=1;align=center;verticalAlign=middle;whiteSpace=wrap;rounded=0;" vertex="1" parent="urHR6lXya4nr1xwzOtR6-130">
          <mxGeometry x="9" y="81" width="60" height="25" as="geometry" />
        </mxCell>
        <mxCell id="urHR6lXya4nr1xwzOtR6-137" value="&lt;font style=&quot;font-size: 16px;&quot;&gt;Inference&amp;nbsp;&lt;span style=&quot;background-color: transparent; color: light-dark(rgb(0, 0, 0), rgb(255, 255, 255));&quot;&gt;Request&lt;/span&gt;&lt;/font&gt;" style="text;html=1;align=center;verticalAlign=middle;whiteSpace=wrap;rounded=0;" vertex="1" parent="1">
          <mxGeometry x="1101" y="795" width="121" height="25" as="geometry" />
        </mxCell>
        <mxCell id="urHR6lXya4nr1xwzOtR6-138" value="&lt;font style=&quot;font-size: 16px;&quot;&gt;Inference&amp;nbsp;&lt;span style=&quot;background-color: transparent; color: light-dark(rgb(0, 0, 0), rgb(255, 255, 255));&quot;&gt;Response&lt;/span&gt;&lt;/font&gt;" style="text;html=1;align=center;verticalAlign=middle;whiteSpace=wrap;rounded=0;" vertex="1" parent="1">
          <mxGeometry x="1198" y="625" width="121" height="25" as="geometry" />
        </mxCell>
        <mxCell id="urHR6lXya4nr1xwzOtR6-139" value="&lt;font style=&quot;font-size: 16px;&quot;&gt;Inference&amp;nbsp;&lt;span style=&quot;background-color: transparent; color: light-dark(rgb(0, 0, 0), rgb(255, 255, 255));&quot;&gt;Response&lt;/span&gt;&lt;/font&gt;" style="text;html=1;align=center;verticalAlign=middle;whiteSpace=wrap;rounded=0;" vertex="1" parent="1">
          <mxGeometry x="1196" y="966.5" width="121" height="25" as="geometry" />
        </mxCell>
        <mxCell id="urHR6lXya4nr1xwzOtR6-143" style="edgeStyle=orthogonalEdgeStyle;rounded=0;orthogonalLoop=1;jettySize=auto;html=1;entryX=0;entryY=0.5;entryDx=0;entryDy=0;startArrow=classicThin;startFill=1;" edge="1" parent="1" target="urHR6lXya4nr1xwzOtR6-69">
          <mxGeometry relative="1" as="geometry">
            <mxPoint x="640" y="980" as="sourcePoint" />
          </mxGeometry>
        </mxCell>
        <mxCell id="urHR6lXya4nr1xwzOtR6-144" style="edgeStyle=orthogonalEdgeStyle;rounded=0;orthogonalLoop=1;jettySize=auto;html=1;entryX=0;entryY=0.5;entryDx=0;entryDy=0;startArrow=classicThin;startFill=1;" edge="1" parent="1" target="urHR6lXya4nr1xwzOtR6-102">
          <mxGeometry relative="1" as="geometry">
            <mxPoint x="640" y="637.0285714285714" as="sourcePoint" />
          </mxGeometry>
        </mxCell>
        <mxCell id="urHR6lXya4nr1xwzOtR6-146" style="edgeStyle=orthogonalEdgeStyle;rounded=0;orthogonalLoop=1;jettySize=auto;html=1;entryX=-0.024;entryY=0.486;entryDx=0;entryDy=0;entryPerimeter=0;startArrow=classicThin;startFill=1;" edge="1" parent="1" source="urHR6lXya4nr1xwzOtR6-102" target="urHR6lXya4nr1xwzOtR6-66">
          <mxGeometry relative="1" as="geometry" />
        </mxCell>
        <mxCell id="urHR6lXya4nr1xwzOtR6-147" style="edgeStyle=orthogonalEdgeStyle;rounded=0;orthogonalLoop=1;jettySize=auto;html=1;entryX=0;entryY=0.5;entryDx=0;entryDy=0;startArrow=classicThin;startFill=1;" edge="1" parent="1" source="urHR6lXya4nr1xwzOtR6-69" target="urHR6lXya4nr1xwzOtR6-109">
          <mxGeometry relative="1" as="geometry" />
        </mxCell>
        <mxCell id="urHR6lXya4nr1xwzOtR6-148" style="edgeStyle=orthogonalEdgeStyle;rounded=0;orthogonalLoop=1;jettySize=auto;html=1;entryX=0;entryY=0.5;entryDx=0;entryDy=0;startArrow=classicThin;startFill=1;" edge="1" parent="1" source="urHR6lXya4nr1xwzOtR6-109" target="urHR6lXya4nr1xwzOtR6-63">
          <mxGeometry relative="1" as="geometry" />
        </mxCell>
        <mxCell id="urHR6lXya4nr1xwzOtR6-149" style="edgeStyle=orthogonalEdgeStyle;rounded=0;orthogonalLoop=1;jettySize=auto;html=1;entryX=0;entryY=0.5;entryDx=0;entryDy=0;startArrow=classicThin;startFill=1;" edge="1" parent="1" source="urHR6lXya4nr1xwzOtR6-66" target="urHR6lXya4nr1xwzOtR6-115">
          <mxGeometry relative="1" as="geometry" />
        </mxCell>
        <mxCell id="urHR6lXya4nr1xwzOtR6-151" value="&lt;span style=&quot;background-color: transparent; color: light-dark(rgb(0, 0, 0), rgb(255, 255, 255));&quot;&gt;&lt;font style=&quot;font-size: 16px;&quot;&gt;Training Data&lt;/font&gt;&lt;/span&gt;" style="text;html=1;align=center;verticalAlign=middle;whiteSpace=wrap;rounded=0;" vertex="1" parent="1">
          <mxGeometry x="499" y="133" width="112" height="25" as="geometry" />
        </mxCell>
        <mxCell id="urHR6lXya4nr1xwzOtR6-152" value="" style="sketch=0;points=[[0,0,0],[0.25,0,0],[0.5,0,0],[0.75,0,0],[1,0,0],[0,1,0],[0.25,1,0],[0.5,1,0],[0.75,1,0],[1,1,0],[0,0.25,0],[0,0.5,0],[0,0.75,0],[1,0.25,0],[1,0.5,0],[1,0.75,0]];outlineConnect=0;fontColor=#232F3E;fillColor=#7AA116;strokeColor=#ffffff;dashed=0;verticalLabelPosition=bottom;verticalAlign=top;align=center;html=1;fontSize=12;fontStyle=0;aspect=fixed;shape=mxgraph.aws4.resourceIcon;resIcon=mxgraph.aws4.s3;" vertex="1" parent="1">
          <mxGeometry x="517" y="60" width="78" height="78" as="geometry" />
        </mxCell>
        <mxCell id="urHR6lXya4nr1xwzOtR6-157" style="edgeStyle=orthogonalEdgeStyle;rounded=0;orthogonalLoop=1;jettySize=auto;html=1;entryX=0.239;entryY=0.005;entryDx=0;entryDy=0;entryPerimeter=0;" edge="1" parent="1" target="urHR6lXya4nr1xwzOtR6-22">
          <mxGeometry relative="1" as="geometry">
            <mxPoint x="558.0909090909088" y="153" as="sourcePoint" />
          </mxGeometry>
        </mxCell>
        <mxCell id="urHR6lXya4nr1xwzOtR6-161" style="edgeStyle=orthogonalEdgeStyle;rounded=0;orthogonalLoop=1;jettySize=auto;html=1;entryX=0.5;entryY=0;entryDx=0;entryDy=0;" edge="1" parent="1" source="urHR6lXya4nr1xwzOtR6-158" target="urHR6lXya4nr1xwzOtR6-45">
          <mxGeometry relative="1" as="geometry" />
        </mxCell>
        <mxCell id="urHR6lXya4nr1xwzOtR6-158" value="" style="fillColor=light-dark(#ed7100, #1785b5);verticalLabelPosition=bottom;sketch=0;html=1;strokeColor=#ffffff;verticalAlign=top;align=center;points=[[0.145,0.145,0],[0.5,0,0],[0.855,0.145,0],[1,0.5,0],[0.855,0.855,0],[0.5,1,0],[0.145,0.855,0],[0,0.5,0]];pointerEvents=1;shape=mxgraph.cisco_safe.compositeIcon;bgIcon=ellipse;resIcon=mxgraph.cisco_safe.capability.user;" vertex="1" parent="1">
          <mxGeometry x="1346" y="95" width="78" height="78" as="geometry" />
        </mxCell>
        <mxCell id="urHR6lXya4nr1xwzOtR6-159" value="&lt;font style=&quot;font-size: 16px;&quot;&gt;Approve Model Version&lt;/font&gt;" style="text;html=1;align=center;verticalAlign=middle;whiteSpace=wrap;rounded=0;" vertex="1" parent="1">
          <mxGeometry x="1309" y="167" width="186" height="30" as="geometry" />
        </mxCell>
        <mxCell id="urHR6lXya4nr1xwzOtR6-162" value="&lt;font style=&quot;font-size: 16px;&quot;&gt;&lt;b&gt;Model Approval&lt;/b&gt; (Pre-Prod / Prod)&lt;/font&gt;" style="text;html=1;align=center;verticalAlign=middle;whiteSpace=wrap;rounded=0;" vertex="1" parent="1">
          <mxGeometry x="881" y="465" width="286" height="30" as="geometry" />
        </mxCell>
        <mxCell id="urHR6lXya4nr1xwzOtR6-178" value="" style="rounded=0;whiteSpace=wrap;html=1;fillColor=none;container=0;" vertex="1" parent="1">
          <mxGeometry x="396" y="560" width="240" height="148" as="geometry" />
        </mxCell>
        <mxCell id="urHR6lXya4nr1xwzOtR6-179" value="&lt;font style=&quot;font-size: 15px;&quot;&gt;Sagemaker&amp;nbsp;&lt;/font&gt;&lt;div&gt;&lt;span style=&quot;background-color: transparent; color: light-dark(rgb(0, 0, 0), rgb(255, 255, 255));&quot;&gt;&lt;font style=&quot;font-size: 15px;&quot;&gt;Endpoint&lt;/font&gt;&lt;/span&gt;&lt;/div&gt;" style="text;html=1;align=center;verticalAlign=middle;whiteSpace=wrap;rounded=0;container=0;" vertex="1" parent="1">
          <mxGeometry x="400" y="566" width="94" height="25" as="geometry" />
        </mxCell>
        <mxCell id="urHR6lXya4nr1xwzOtR6-180" value="" style="sketch=0;outlineConnect=0;fontColor=#232F3E;gradientColor=none;fillColor=#E7157B;strokeColor=none;dashed=0;verticalLabelPosition=bottom;verticalAlign=top;align=center;html=1;fontSize=12;fontStyle=0;aspect=fixed;pointerEvents=1;shape=mxgraph.aws4.endpoint;direction=south;container=0;" vertex="1" parent="1">
          <mxGeometry x="417.25" y="596" width="50" height="50" as="geometry" />
        </mxCell>
        <mxCell id="urHR6lXya4nr1xwzOtR6-181" value="" style="sketch=0;points=[[0,0,0],[0.25,0,0],[0.5,0,0],[0.75,0,0],[1,0,0],[0,1,0],[0.25,1,0],[0.5,1,0],[0.75,1,0],[1,1,0],[0,0.25,0],[0,0.5,0],[0,0.75,0],[1,0.25,0],[1,0.5,0],[1,0.75,0]];outlineConnect=0;fontColor=#232F3E;fillColor=#01A88D;strokeColor=#ffffff;dashed=0;verticalLabelPosition=bottom;verticalAlign=top;align=center;html=1;fontSize=12;fontStyle=0;aspect=fixed;shape=mxgraph.aws4.resourceIcon;resIcon=mxgraph.aws4.kendra;container=0;" vertex="1" parent="1">
          <mxGeometry x="531" y="596" width="50" height="50" as="geometry" />
        </mxCell>
        <mxCell id="urHR6lXya4nr1xwzOtR6-183" style="edgeStyle=orthogonalEdgeStyle;rounded=0;orthogonalLoop=1;jettySize=auto;html=1;entryX=0;entryY=0.5;entryDx=0;entryDy=0;entryPerimeter=0;startArrow=classic;startFill=1;" edge="1" parent="1" source="urHR6lXya4nr1xwzOtR6-180" target="urHR6lXya4nr1xwzOtR6-181">
          <mxGeometry relative="1" as="geometry" />
        </mxCell>
        <mxCell id="urHR6lXya4nr1xwzOtR6-184" style="edgeStyle=orthogonalEdgeStyle;rounded=0;orthogonalLoop=1;jettySize=auto;html=1;startArrow=classic;startFill=1;" edge="1" parent="1">
          <mxGeometry relative="1" as="geometry">
            <mxPoint x="525.25" y="682.71" as="sourcePoint" />
            <mxPoint x="556.0285714285714" y="648" as="targetPoint" />
          </mxGeometry>
        </mxCell>
        <mxCell id="urHR6lXya4nr1xwzOtR6-185" value="" style="endArrow=classic;startArrow=classic;html=1;rounded=0;" edge="1" parent="1">
          <mxGeometry width="50" height="50" relative="1" as="geometry">
            <mxPoint x="440.25" y="646" as="sourcePoint" />
            <mxPoint x="474" y="686" as="targetPoint" />
            <Array as="points">
              <mxPoint x="440.25" y="686" />
            </Array>
          </mxGeometry>
        </mxCell>
        <mxCell id="urHR6lXya4nr1xwzOtR6-186" value="" style="sketch=0;points=[[0,0,0],[0.25,0,0],[0.5,0,0],[0.75,0,0],[1,0,0],[0,1,0],[0.25,1,0],[0.5,1,0],[0.75,1,0],[1,1,0],[0,0.25,0],[0,0.5,0],[0,0.75,0],[1,0.25,0],[1,0.5,0],[1,0.75,0]];outlineConnect=0;fontColor=#232F3E;fillColor=#01A88D;strokeColor=#ffffff;dashed=0;verticalLabelPosition=bottom;verticalAlign=top;align=center;html=1;fontSize=12;fontStyle=0;aspect=fixed;shape=mxgraph.aws4.resourceIcon;resIcon=mxgraph.aws4.sagemaker;" vertex="1" parent="1">
          <mxGeometry x="473" y="655" width="50" height="50" as="geometry" />
        </mxCell>
        <mxCell id="urHR6lXya4nr1xwzOtR6-188" value="&lt;span style=&quot;font-size: 15px;&quot;&gt;Kendra&lt;/span&gt;&lt;span style=&quot;color: rgba(0, 0, 0, 0); font-family: monospace; font-size: 0px; text-align: start; text-wrap-mode: nowrap;&quot;&gt;%3CmxGraphModel%3E%3Croot%3E%3CmxCell%20id%3D%220%22%2F%3E%3CmxCell%20id%3D%221%22%20parent%3D%220%22%2F%3E%3CmxCell%20id%3D%222%22%20value%3D%22%26lt%3Bfont%20style%3D%26quot%3Bfont-size%3A%2015px%3B%26quot%3B%26gt%3BSagemaker%26amp%3Bnbsp%3B%26lt%3B%2Ffont%26gt%3B%26lt%3Bdiv%26gt%3B%26lt%3Bspan%20style%3D%26quot%3Bbackground-color%3A%20transparent%3B%20color%3A%20light-dark(rgb(0%2C%200%2C%200)%2C%20rgb(255%2C%20255%2C%20255))%3B%26quot%3B%26gt%3B%26lt%3Bfont%20style%3D%26quot%3Bfont-size%3A%2015px%3B%26quot%3B%26gt%3BEndpoint%26lt%3B%2Ffont%26gt%3B%26lt%3B%2Fspan%26gt%3B%26lt%3B%2Fdiv%26gt%3B%22%20style%3D%22text%3Bhtml%3D1%3Balign%3Dcenter%3BverticalAlign%3Dmiddle%3BwhiteSpace%3Dwrap%3Brounded%3D0%3Bcontainer%3D0%3B%22%20vertex%3D%221%22%20parent%3D%221%22%3E%3CmxGeometry%20x%3D%22400%22%20y%3D%22566%22%20width%3D%2294%22%20height%3D%2225%22%20as%3D%22geometry%22%2F%3E%3C%2FmxCell%3E%3C%2Froot%3E%3C%2FmxGraphModel%3E&lt;/span&gt;" style="text;html=1;align=center;verticalAlign=middle;whiteSpace=wrap;rounded=0;container=0;" vertex="1" parent="1">
          <mxGeometry x="509" y="565" width="94" height="25" as="geometry" />
        </mxCell>
        <mxCell id="urHR6lXya4nr1xwzOtR6-189" value="&lt;span style=&quot;font-size: 15px;&quot;&gt;Bedrock&lt;/span&gt;" style="text;html=1;align=center;verticalAlign=middle;whiteSpace=wrap;rounded=0;container=0;" vertex="1" parent="1">
          <mxGeometry x="517" y="683" width="94" height="25" as="geometry" />
        </mxCell>
        <mxCell id="urHR6lXya4nr1xwzOtR6-190" value="" style="rounded=0;whiteSpace=wrap;html=1;fillColor=none;container=0;" vertex="1" parent="1">
          <mxGeometry x="394" y="920" width="240" height="148" as="geometry" />
        </mxCell>
        <mxCell id="urHR6lXya4nr1xwzOtR6-191" value="&lt;font style=&quot;font-size: 15px;&quot;&gt;Sagemaker&amp;nbsp;&lt;/font&gt;&lt;div&gt;&lt;span style=&quot;background-color: transparent; color: light-dark(rgb(0, 0, 0), rgb(255, 255, 255));&quot;&gt;&lt;font style=&quot;font-size: 15px;&quot;&gt;Endpoint&lt;/font&gt;&lt;/span&gt;&lt;/div&gt;" style="text;html=1;align=center;verticalAlign=middle;whiteSpace=wrap;rounded=0;container=0;" vertex="1" parent="1">
          <mxGeometry x="398" y="926" width="94" height="25" as="geometry" />
        </mxCell>
        <mxCell id="urHR6lXya4nr1xwzOtR6-192" value="" style="sketch=0;outlineConnect=0;fontColor=#232F3E;gradientColor=none;fillColor=#E7157B;strokeColor=none;dashed=0;verticalLabelPosition=bottom;verticalAlign=top;align=center;html=1;fontSize=12;fontStyle=0;aspect=fixed;pointerEvents=1;shape=mxgraph.aws4.endpoint;direction=south;container=0;" vertex="1" parent="1">
          <mxGeometry x="415.25" y="956" width="50" height="50" as="geometry" />
        </mxCell>
        <mxCell id="urHR6lXya4nr1xwzOtR6-193" value="" style="sketch=0;points=[[0,0,0],[0.25,0,0],[0.5,0,0],[0.75,0,0],[1,0,0],[0,1,0],[0.25,1,0],[0.5,1,0],[0.75,1,0],[1,1,0],[0,0.25,0],[0,0.5,0],[0,0.75,0],[1,0.25,0],[1,0.5,0],[1,0.75,0]];outlineConnect=0;fontColor=#232F3E;fillColor=#01A88D;strokeColor=#ffffff;dashed=0;verticalLabelPosition=bottom;verticalAlign=top;align=center;html=1;fontSize=12;fontStyle=0;aspect=fixed;shape=mxgraph.aws4.resourceIcon;resIcon=mxgraph.aws4.kendra;container=0;" vertex="1" parent="1">
          <mxGeometry x="529" y="956" width="50" height="50" as="geometry" />
        </mxCell>
        <mxCell id="urHR6lXya4nr1xwzOtR6-194" style="edgeStyle=orthogonalEdgeStyle;rounded=0;orthogonalLoop=1;jettySize=auto;html=1;entryX=0;entryY=0.5;entryDx=0;entryDy=0;entryPerimeter=0;startArrow=classic;startFill=1;" edge="1" parent="1" source="urHR6lXya4nr1xwzOtR6-192" target="urHR6lXya4nr1xwzOtR6-193">
          <mxGeometry relative="1" as="geometry" />
        </mxCell>
        <mxCell id="urHR6lXya4nr1xwzOtR6-195" style="edgeStyle=orthogonalEdgeStyle;rounded=0;orthogonalLoop=1;jettySize=auto;html=1;startArrow=classic;startFill=1;" edge="1" parent="1">
          <mxGeometry relative="1" as="geometry">
            <mxPoint x="523.25" y="1042.71" as="sourcePoint" />
            <mxPoint x="554.0285714285714" y="1008" as="targetPoint" />
          </mxGeometry>
        </mxCell>
        <mxCell id="urHR6lXya4nr1xwzOtR6-196" value="" style="endArrow=classic;startArrow=classic;html=1;rounded=0;" edge="1" parent="1">
          <mxGeometry width="50" height="50" relative="1" as="geometry">
            <mxPoint x="438.25" y="1006" as="sourcePoint" />
            <mxPoint x="472" y="1046" as="targetPoint" />
            <Array as="points">
              <mxPoint x="438.25" y="1046" />
            </Array>
          </mxGeometry>
        </mxCell>
        <mxCell id="urHR6lXya4nr1xwzOtR6-197" value="" style="sketch=0;points=[[0,0,0],[0.25,0,0],[0.5,0,0],[0.75,0,0],[1,0,0],[0,1,0],[0.25,1,0],[0.5,1,0],[0.75,1,0],[1,1,0],[0,0.25,0],[0,0.5,0],[0,0.75,0],[1,0.25,0],[1,0.5,0],[1,0.75,0]];outlineConnect=0;fontColor=#232F3E;fillColor=#01A88D;strokeColor=#ffffff;dashed=0;verticalLabelPosition=bottom;verticalAlign=top;align=center;html=1;fontSize=12;fontStyle=0;aspect=fixed;shape=mxgraph.aws4.resourceIcon;resIcon=mxgraph.aws4.sagemaker;" vertex="1" parent="1">
          <mxGeometry x="471" y="1015" width="50" height="50" as="geometry" />
        </mxCell>
        <mxCell id="urHR6lXya4nr1xwzOtR6-198" value="&lt;span style=&quot;font-size: 15px;&quot;&gt;Kendra&lt;/span&gt;&lt;span style=&quot;color: rgba(0, 0, 0, 0); font-family: monospace; font-size: 0px; text-align: start; text-wrap-mode: nowrap;&quot;&gt;%3CmxGraphModel%3E%3Croot%3E%3CmxCell%20id%3D%220%22%2F%3E%3CmxCell%20id%3D%221%22%20parent%3D%220%22%2F%3E%3CmxCell%20id%3D%222%22%20value%3D%22%26lt%3Bfont%20style%3D%26quot%3Bfont-size%3A%2015px%3B%26quot%3B%26gt%3BSagemaker%26amp%3Bnbsp%3B%26lt%3B%2Ffont%26gt%3B%26lt%3Bdiv%26gt%3B%26lt%3Bspan%20style%3D%26quot%3Bbackground-color%3A%20transparent%3B%20color%3A%20light-dark(rgb(0%2C%200%2C%200)%2C%20rgb(255%2C%20255%2C%20255))%3B%26quot%3B%26gt%3B%26lt%3Bfont%20style%3D%26quot%3Bfont-size%3A%2015px%3B%26quot%3B%26gt%3BEndpoint%26lt%3B%2Ffont%26gt%3B%26lt%3B%2Fspan%26gt%3B%26lt%3B%2Fdiv%26gt%3B%22%20style%3D%22text%3Bhtml%3D1%3Balign%3Dcenter%3BverticalAlign%3Dmiddle%3BwhiteSpace%3Dwrap%3Brounded%3D0%3Bcontainer%3D0%3B%22%20vertex%3D%221%22%20parent%3D%221%22%3E%3CmxGeometry%20x%3D%22400%22%20y%3D%22566%22%20width%3D%2294%22%20height%3D%2225%22%20as%3D%22geometry%22%2F%3E%3C%2FmxCell%3E%3C%2Froot%3E%3C%2FmxGraphModel%3E&lt;/span&gt;" style="text;html=1;align=center;verticalAlign=middle;whiteSpace=wrap;rounded=0;container=0;" vertex="1" parent="1">
          <mxGeometry x="507" y="925" width="94" height="25" as="geometry" />
        </mxCell>
        <mxCell id="urHR6lXya4nr1xwzOtR6-199" value="&lt;span style=&quot;font-size: 15px;&quot;&gt;Bedrock&lt;/span&gt;" style="text;html=1;align=center;verticalAlign=middle;whiteSpace=wrap;rounded=0;container=0;" vertex="1" parent="1">
          <mxGeometry x="515" y="1043" width="94" height="25" as="geometry" />
        </mxCell>
      </root>
    </mxGraphModel>
  </diagram>
</mxfile>
